<svg xmlns="http://www.w3.org/2000/svg" width="1200" height="800" viewBox="0 0 1200 800" role="img" aria-label="Progress illustration">
  <defs>
    <linearGradient id="g" x1="0" x2="1" y1="0" y2="1">
      <stop offset="0" stop-color="#2563eb" stop-opacity="0.95"/>
      <stop offset="1" stop-color="#60a5fa" stop-opacity="0.85"/>
    </linearGradient>
    <filter id="soft" x="-10%" y="-10%" width="120%" height="120%">
      <feGaussianBlur stdDeviation="14" result="b"/>
      <feColorMatrix in="b" type="matrix" values="1 0 0 0 0  0 1 0 0 0  0 0 1 0 0  0 0 0 0.7 0"/>
      <feMerge>
        <feMergeNode/>
        <feMergeNode in="SourceGraphic"/>
      </feMerge>
    </filter>
  </defs>

  <rect x="0" y="0" width="1200" height="800" fill="#0b1220" opacity="0"/>

  <g filter="url(#soft)">
    <rect x="130" y="130" width="940" height="540" rx="48" fill="url(#g)" opacity="0.18"/>
    <rect x="170" y="170" width="860" height="460" rx="40" fill="#ffffff" opacity="0.85"/>

    <rect x="220" y="230" width="420" height="34" rx="17" fill="#e2e8f0"/>
    <rect x="220" y="290" width="540" height="18" rx="9" fill="#e2e8f0"/>
    <rect x="220" y="322" width="420" height="18" rx="9" fill="#e2e8f0"/>

    <rect x="220" y="410" width="760" height="26" rx="13" fill="#e2e8f0"/>
    <rect x="220" y="410" width="520" height="26" rx="13" fill="#2563eb" opacity="0.88"/>

    <path d="M270 560 C 360 470, 470 610, 560 520 S 760 500, 860 430" fill="none" stroke="#2563eb" stroke-width="18" stroke-linecap="round" opacity="0.9"/>
    <circle cx="860" cy="430" r="22" fill="#2563eb" opacity="0.92"/>
  </g>
</svg>
