<svg xmlns="http://www.w3.org/2000/svg" width="1200" height="800" viewBox="0 0 1200 800" role="img" aria-label="Tasks illustration">
  <defs>
    <linearGradient id="g" x1="0" x2="1" y1="0" y2="1">
      <stop offset="0" stop-color="#2563eb" stop-opacity="0.9"/>
      <stop offset="1" stop-color="#93c5fd" stop-opacity="0.8"/>
    </linearGradient>
    <filter id="soft" x="-10%" y="-10%" width="120%" height="120%">
      <feGaussianBlur stdDeviation="12" result="b"/>
      <feColorMatrix in="b" type="matrix" values="1 0 0 0 0  0 1 0 0 0  0 0 1 0 0  0 0 0 0.7 0"/>
      <feMerge>
        <feMergeNode/>
        <feMergeNode in="SourceGraphic"/>
      </feMerge>
    </filter>
  </defs>

  <g filter="url(#soft)">
    <rect x="160" y="140" width="880" height="520" rx="48" fill="url(#g)" opacity="0.18"/>
    <rect x="200" y="180" width="800" height="440" rx="40" fill="#ffffff" opacity="0.88"/>

    <rect x="260" y="240" width="260" height="28" rx="14" fill="#e2e8f0"/>

    <g opacity="0.96">
      <rect x="260" y="310" width="680" height="76" rx="26" fill="#f1f5f9"/>
      <circle cx="310" cy="348" r="18" fill="#2563eb"/>
      <path d="M302 348 l8 10 l18 -22" fill="none" stroke="#ffffff" stroke-width="6" stroke-linecap="round" stroke-linejoin="round"/>
      <rect x="360" y="334" width="420" height="18" rx="9" fill="#cbd5e1"/>
    </g>

    <g opacity="0.96">
      <rect x="260" y="404" width="680" height="76" rx="26" fill="#f1f5f9"/>
      <circle cx="310" cy="442" r="18" fill="#2563eb" opacity="0.35"/>
      <rect x="360" y="428" width="520" height="18" rx="9" fill="#cbd5e1"/>
    </g>

    <g opacity="0.96">
      <rect x="260" y="498" width="680" height="76" rx="26" fill="#f1f5f9"/>
      <circle cx="310" cy="536" r="18" fill="#2563eb" opacity="0.35"/>
      <rect x="360" y="522" width="360" height="18" rx="9" fill="#cbd5e1"/>
    </g>
  </g>
</svg>
