<svg xmlns="http://www.w3.org/2000/svg" width="1200" height="800" viewBox="0 0 1200 800" role="img" aria-label="Team illustration">
  <defs>
    <linearGradient id="g" x1="0" x2="1" y1="0" y2="1">
      <stop offset="0" stop-color="#2563eb" stop-opacity="0.9"/>
      <stop offset="1" stop-color="#60a5fa" stop-opacity="0.8"/>
    </linearGradient>
    <filter id="soft" x="-10%" y="-10%" width="120%" height="120%">
      <feGaussianBlur stdDeviation="12" result="b"/>
      <feColorMatrix in="b" type="matrix" values="1 0 0 0 0  0 1 0 0 0  0 0 1 0 0  0 0 0 0.65 0"/>
      <feMerge>
        <feMergeNode/>
        <feMergeNode in="SourceGraphic"/>
      </feMerge>
    </filter>
  </defs>

  <g filter="url(#soft)">
    <rect x="170" y="150" width="860" height="500" rx="48" fill="url(#g)" opacity="0.18"/>
    <rect x="210" y="190" width="780" height="420" rx="40" fill="#ffffff" opacity="0.88"/>

    <g opacity="0.95">
      <circle cx="420" cy="360" r="70" fill="#2563eb" opacity="0.22"/>
      <circle cx="420" cy="340" r="36" fill="#2563eb" opacity="0.55"/>
      <rect x="360" y="390" width="120" height="70" rx="35" fill="#2563eb" opacity="0.38"/>

      <circle cx="600" cy="360" r="70" fill="#2563eb" opacity="0.22"/>
      <circle cx="600" cy="340" r="36" fill="#2563eb" opacity="0.55"/>
      <rect x="540" y="390" width="120" height="70" rx="35" fill="#2563eb" opacity="0.38"/>

      <circle cx="780" cy="360" r="70" fill="#2563eb" opacity="0.22"/>
      <circle cx="780" cy="340" r="36" fill="#2563eb" opacity="0.55"/>
      <rect x="720" y="390" width="120" height="70" rx="35" fill="#2563eb" opacity="0.38"/>
    </g>

    <rect x="310" y="500" width="580" height="18" rx="9" fill="#e2e8f0"/>
    <rect x="370" y="532" width="460" height="18" rx="9" fill="#e2e8f0"/>
  </g>
</svg>
